<mxfile host="app.diagrams.net" agent="Mozilla/5.0 (Windows NT 10.0; Win64; x64) AppleWebKit/537.36 (KHTML, like Gecko) Chrome/141.0.0.0 Safari/537.36" version="28.2.8">
  <diagram name="Page-1" id="U8UdaOBlHTp5kfd4XlJM">
    <mxGraphModel dx="1412" dy="737" grid="1" gridSize="10" guides="1" tooltips="1" connect="1" arrows="1" fold="1" page="1" pageScale="1" pageWidth="850" pageHeight="1100" math="0" shadow="0">
      <root>
        <mxCell id="0" />
        <mxCell id="1" parent="0" />
        <mxCell id="mqZvGSjv_Yte_UEaYPyt-1" value="" style="shape=mxgraph.cisco.switches.workgroup_switch;sketch=0;html=1;pointerEvents=1;dashed=0;fillColor=#036897;strokeColor=#ffffff;strokeWidth=2;verticalLabelPosition=bottom;verticalAlign=top;align=center;outlineConnect=0;" vertex="1" parent="1">
          <mxGeometry x="174.50000000000006" y="170" width="101" height="50" as="geometry" />
        </mxCell>
        <mxCell id="mqZvGSjv_Yte_UEaYPyt-2" value="" style="shape=mxgraph.cisco.switches.workgroup_switch;sketch=0;html=1;pointerEvents=1;dashed=0;fillColor=#036897;strokeColor=#ffffff;strokeWidth=2;verticalLabelPosition=bottom;verticalAlign=top;align=center;outlineConnect=0;" vertex="1" parent="1">
          <mxGeometry x="174.50000000000006" y="260" width="101" height="50" as="geometry" />
        </mxCell>
        <mxCell id="mqZvGSjv_Yte_UEaYPyt-3" value="Spine 1" style="swimlane;whiteSpace=wrap;html=1;" vertex="1" parent="1">
          <mxGeometry x="125" y="130" width="200" height="200" as="geometry" />
        </mxCell>
        <mxCell id="mqZvGSjv_Yte_UEaYPyt-4" value="" style="shape=mxgraph.cisco.switches.workgroup_switch;sketch=0;html=1;pointerEvents=1;dashed=0;fillColor=#036897;strokeColor=#ffffff;strokeWidth=2;verticalLabelPosition=bottom;verticalAlign=top;align=center;outlineConnect=0;" vertex="1" parent="1">
          <mxGeometry x="574" y="170" width="101" height="50" as="geometry" />
        </mxCell>
        <mxCell id="mqZvGSjv_Yte_UEaYPyt-5" value="" style="shape=mxgraph.cisco.switches.workgroup_switch;sketch=0;html=1;pointerEvents=1;dashed=0;fillColor=#036897;strokeColor=#ffffff;strokeWidth=2;verticalLabelPosition=bottom;verticalAlign=top;align=center;outlineConnect=0;" vertex="1" parent="1">
          <mxGeometry x="574" y="260" width="101" height="50" as="geometry" />
        </mxCell>
        <mxCell id="mqZvGSjv_Yte_UEaYPyt-6" value="Spine 2" style="swimlane;whiteSpace=wrap;html=1;" vertex="1" parent="1">
          <mxGeometry x="524.5" y="130" width="200" height="200" as="geometry" />
        </mxCell>
        <mxCell id="mqZvGSjv_Yte_UEaYPyt-8" value="" style="shape=mxgraph.cisco.routers.router;sketch=0;html=1;pointerEvents=1;dashed=0;fillColor=#036897;strokeColor=#ffffff;strokeWidth=2;verticalLabelPosition=bottom;verticalAlign=top;align=center;outlineConnect=0;" vertex="1" parent="1">
          <mxGeometry x="386" y="203.5" width="78" height="53" as="geometry" />
        </mxCell>
        <mxCell id="mqZvGSjv_Yte_UEaYPyt-9" value="" style="endArrow=none;html=1;rounded=0;entryX=1;entryY=0.5;entryDx=0;entryDy=0;exitX=0;exitY=0.5;exitDx=0;exitDy=0;exitPerimeter=0;" edge="1" parent="1" source="mqZvGSjv_Yte_UEaYPyt-8" target="mqZvGSjv_Yte_UEaYPyt-3">
          <mxGeometry width="50" height="50" relative="1" as="geometry">
            <mxPoint x="430" y="368.5" as="sourcePoint" />
            <mxPoint x="430" y="200.5" as="targetPoint" />
          </mxGeometry>
        </mxCell>
        <mxCell id="mqZvGSjv_Yte_UEaYPyt-10" value="" style="endArrow=none;html=1;rounded=0;entryX=0;entryY=0.5;entryDx=0;entryDy=0;exitX=1;exitY=0.5;exitDx=0;exitDy=0;exitPerimeter=0;" edge="1" parent="1" source="mqZvGSjv_Yte_UEaYPyt-8" target="mqZvGSjv_Yte_UEaYPyt-6">
          <mxGeometry width="50" height="50" relative="1" as="geometry">
            <mxPoint x="430" y="368.5" as="sourcePoint" />
            <mxPoint x="430" y="200.5" as="targetPoint" />
          </mxGeometry>
        </mxCell>
        <mxCell id="mqZvGSjv_Yte_UEaYPyt-12" value="" style="shape=mxgraph.cisco.servers.fileserver;sketch=0;html=1;pointerEvents=1;dashed=0;fillColor=#036897;strokeColor=#ffffff;strokeWidth=2;verticalLabelPosition=bottom;verticalAlign=top;align=center;outlineConnect=0;" vertex="1" parent="1">
          <mxGeometry x="280.5" y="510" width="60" height="90" as="geometry" />
        </mxCell>
        <mxCell id="mqZvGSjv_Yte_UEaYPyt-13" value="VMWare" style="swimlane;whiteSpace=wrap;html=1;" vertex="1" parent="1">
          <mxGeometry x="125" y="440" width="235.5" height="200" as="geometry" />
        </mxCell>
        <mxCell id="mqZvGSjv_Yte_UEaYPyt-11" value="" style="shape=mxgraph.cisco.servers.fileserver;sketch=0;html=1;pointerEvents=1;dashed=0;fillColor=#036897;strokeColor=#ffffff;strokeWidth=2;verticalLabelPosition=bottom;verticalAlign=top;align=center;outlineConnect=0;" vertex="1" parent="mqZvGSjv_Yte_UEaYPyt-13">
          <mxGeometry x="20.5" y="70" width="60" height="90" as="geometry" />
        </mxCell>
        <mxCell id="mqZvGSjv_Yte_UEaYPyt-14" value="PureStorage" style="swimlane;whiteSpace=wrap;html=1;" vertex="1" parent="1">
          <mxGeometry x="506.75" y="440" width="235.5" height="200" as="geometry" />
        </mxCell>
        <mxCell id="mqZvGSjv_Yte_UEaYPyt-15" value="" style="shape=mxgraph.cisco.servers.fileserver;sketch=0;html=1;pointerEvents=1;dashed=0;fillColor=#036897;strokeColor=#ffffff;strokeWidth=2;verticalLabelPosition=bottom;verticalAlign=top;align=center;outlineConnect=0;" vertex="1" parent="mqZvGSjv_Yte_UEaYPyt-14">
          <mxGeometry x="20.5" y="70" width="60" height="90" as="geometry" />
        </mxCell>
        <mxCell id="mqZvGSjv_Yte_UEaYPyt-16" value="" style="shape=mxgraph.cisco.servers.fileserver;sketch=0;html=1;pointerEvents=1;dashed=0;fillColor=#036897;strokeColor=#ffffff;strokeWidth=2;verticalLabelPosition=bottom;verticalAlign=top;align=center;outlineConnect=0;" vertex="1" parent="mqZvGSjv_Yte_UEaYPyt-14">
          <mxGeometry x="153.25" y="65" width="60" height="90" as="geometry" />
        </mxCell>
      </root>
    </mxGraphModel>
  </diagram>
</mxfile>
